<svg xmlns="http://www.w3.org/2000/svg" viewBox="0 0 64 64" role="img" aria-label="Ngram">
  <defs>
    <linearGradient id="ngram-gradient" x1="8" y1="56" x2="56" y2="8" gradientUnits="userSpaceOnUse">
      <stop offset="0" stop-color="#E1006B" />
      <stop offset="0.52" stop-color="#FF385C" />
      <stop offset="1" stop-color="#FF8A00" />
    </linearGradient>
  </defs>
  <path
    fill="url(#ngram-gradient)"
    d="M63.43 32c0 17.67-14.2 32-31.72 32-8.56 0-16.33-3.42-22.04-8.98l12.23-23.31 12.25 14.84c3.61 4.37 10.46 3.65 13.1-1.38L60.82 19.31A32.22 32.22 0 0 1 63.43 32ZM14.17 20.83 2.18 43.69A32.32 32.32 0 0 1 0 32C0 14.33 14.2 0 31.71 0c8.25 0 15.77 3.18 21.41 8.38L39.53 34.29 27.28 19.45c-3.61-4.37-10.46-3.65-13.1 1.38Z"
  />
</svg>
