<svg fill="none" xmlns="http://www.w3.org/2000/svg" viewBox="0 0 24.63993 24.117073170731707" style="max-height: 500px" width="24.63993" height="24.117073170731707">
  <path class="fill-black dark:fill-white" d="M 24.422 12 C 24.422 18.627 18.955 24 12.211 24 C 8.917 24 5.927 22.718 3.731 20.634 L 8.44 11.892 L 13.158 17.456 C 14.548 19.095 17.186 18.825 18.201 16.94 L 23.425 7.243 C 24.067 8.702 24.422 10.31 24.422 12 Z M 5.458 7.81 L 0.84 16.382 C 0.298 15.025 0 13.547 0 12 C 0 5.373 5.467 0 12.211 0 C 15.387 0 18.28 1.192 20.452 3.144 L 15.219 12.858 L 10.501 7.294 C 9.111 5.655 6.473 5.925 5.458 7.81 Z" />
</svg>